<svg width="300" height="301" viewBox="0 0 300 301" fill="none" xmlns="http://www.w3.org/2000/svg">
<path d="M264.312 0C273.524 0 281 7.476 281 16.6875V283.688C281 292.899 273.524 300.375 264.312 300.375H64.0625C36.4614 300.375 14 277.914 14 250.312V50.0625C14 22.4614 36.4614 0 64.0625 0H264.312ZM64.0625 233.625C54.8677 233.625 47.375 241.118 47.375 250.312C47.375 259.507 54.8677 267 64.0625 267H247.625V233.625H64.0625ZM64.0625 33.375C54.8677 33.375 47.375 40.8677 47.375 50.0625V203.32C52.6149 201.451 58.1718 200.25 64.0625 200.25H247.625V33.375H64.0625Z" fill="#F61C50"/>
<path d="M149.753 174.818V174.818C148.185 174.818 146.687 174.199 145.579 173.084L99.7841 127.213C87.7797 115.185 87.7797 95.6157 99.7841 83.5877C105.58 77.7859 113.321 74.5844 121.57 74.5844C129.819 74.5844 137.56 77.7859 143.356 83.5877L149.753 89.9967L156.145 83.5936C161.947 77.7859 169.688 74.5844 177.937 74.5844C186.185 74.5844 193.927 77.7859 199.723 83.5877C211.727 95.6157 211.727 115.185 199.729 127.213L153.928 173.09C152.819 174.199 151.322 174.818 149.753 174.818" fill="#F61C50"/>
<mask id="mask0_11113_40" style="mask-type:luminance" maskUnits="userSpaceOnUse" x="90" y="74" width="119" height="101">
<path d="M149.753 174.818V174.818C148.185 174.818 146.687 174.199 145.579 173.084L99.7841 127.213C87.7797 115.185 87.7797 95.6157 99.7841 83.5877C105.58 77.7859 113.321 74.5844 121.57 74.5844C129.819 74.5844 137.56 77.7859 143.356 83.5877L149.753 89.9967L156.145 83.5936C161.947 77.7859 169.688 74.5844 177.937 74.5844C186.185 74.5844 193.927 77.7859 199.723 83.5877C211.727 95.6157 211.727 115.185 199.729 127.213L153.928 173.09C152.819 174.199 151.322 174.818 149.753 174.818" fill="white"/>
</mask>
<g mask="url(#mask0_11113_40)">
</g>
</svg>
